<?xml version="1.0" encoding="UTF-8"?>
<!DOCTYPE svg PUBLIC "-//W3C//DTD SVG 1.1//EN" "http://www.w3.org/Graphics/SVG/1.1/DTD/svg11.dtd">
<svg version="1.1" xmlns="http://www.w3.org/2000/svg" xmlns:xlink="http://www.w3.org/1999/xlink" x="0" y="0" width="1375" height="1000" viewBox="0, 0, 1375, 1000">
  <g id="Layer_1">
    <path d="M263.212,743.458 C246.032,752.05 251.217,798.92 254.647,815.064 C259.33,837.001 267.571,855.97 279.229,859.73 C287.934,862.55 298.256,865.13 307.017,837.808 C314.596,814.206 315.322,760.483 296.92,746.824 C277.189,732.222 273.322,738.409 263.212,743.458" fill="#E98B97"/>
    <path d="M263.212,743.458 C246.032,752.05 251.217,798.92 254.647,815.064 C259.33,837.001 267.571,855.97 279.229,859.73 C287.934,862.55 298.256,865.13 307.017,837.808 C314.596,814.206 315.322,760.483 296.92,746.824 C277.189,732.222 273.322,738.409 263.212,743.458 z" fill-opacity="0" stroke="#1A1919" stroke-width="5.669" stroke-linecap="round" stroke-linejoin="round"/>
    <path d="M284.277,810.86 C308.525,821.8 307.537,775.197 304.204,760.905 C297.932,733.97 269.568,741.447 267.431,768.742 C266.306,783.297 268.663,803.805 284.277,810.86" fill="#FFFFFE"/>
    <path d="M284.277,810.86 C308.525,821.8 307.537,775.197 304.204,760.905 C297.932,733.97 269.568,741.447 267.431,768.742 C266.306,783.297 268.663,803.805 284.277,810.86 z" fill-opacity="0" stroke="#1A1919" stroke-width="5.669" stroke-linecap="round" stroke-linejoin="round"/>
    <path d="M327.238,802.436 C314.647,810.297 293.587,806.204 285.895,788.946 C279.623,774.902 289.316,741.339 291.857,726.611 C296.554,699.358 304.049,655.417 333.904,645.822 C359.066,637.722 358.471,647.777 355.04,674.402 C352.307,695.659 347.348,714.742 346.631,735.048 C345.772,758.617 345.941,790.75 327.238,802.436" fill="#F5C6AE"/>
    <path d="M327.238,802.436 C314.647,810.297 293.587,806.204 285.895,788.946 C279.623,774.902 289.316,741.339 291.857,726.611 C296.554,699.358 304.049,655.417 333.904,645.822 C359.066,637.722 358.471,647.777 355.04,674.402 C352.307,695.659 347.348,714.742 346.631,735.048 C345.772,758.617 345.941,790.75 327.238,802.436 z" fill-opacity="0" stroke="#1A1919" stroke-width="5.669" stroke-linecap="round" stroke-linejoin="round"/>
    <path d="M391.382,936.82 C409.251,969.64 457.499,1006.21 477.866,991.84 C491.952,981.9 486.454,964.06 475.485,943.99 C466.701,927.96 445.025,908.28 443.085,881.27 C441.173,854.65 414.496,854.57 394.696,874.41 C376.757,892.38 380.057,916 391.382,936.82" fill="#E98B97"/>
    <path d="M391.382,936.82 C409.251,969.64 457.499,1006.21 477.866,991.84 C491.952,981.9 486.454,964.06 475.485,943.99 C466.701,927.96 445.025,908.28 443.085,881.27 C441.173,854.65 414.496,854.57 394.696,874.41 C376.757,892.38 380.057,916 391.382,936.82 z" fill-opacity="0" stroke="#1A1919" stroke-width="5.669" stroke-linecap="round" stroke-linejoin="round"/>
    <path d="M441.895,856.35 C437.475,885.69 430.387,918.72 423.36,920.59 C399.491,926.96 404.413,873.3 401.432,857.76 C398.563,842.78 394.725,815.908 394.725,804.115 C394.725,768.892 369.58,734.444 386.244,704.72 C401.306,677.857 420.29,682.188 431.793,708.076 C446.554,741.363 445.265,772.103 446.947,795.686 C447.707,806.162 445.968,829.31 441.895,856.35" fill="#F5C6AE"/>
    <path d="M441.895,856.35 C437.475,885.69 430.387,918.72 423.36,920.59 C399.491,926.96 404.413,873.3 401.432,857.76 C398.563,842.78 394.725,815.908 394.725,804.115 C394.725,768.892 369.58,734.444 386.244,704.72 C401.306,677.857 420.29,682.188 431.793,708.076 C446.554,741.363 445.265,772.103 446.947,795.686 C447.707,806.162 445.968,829.31 441.895,856.35 z" fill-opacity="0" stroke="#1A1919" stroke-width="5.669" stroke-linecap="round" stroke-linejoin="round"/>
    <path d="M448.682,835.919 C452.423,840.058 457.162,845.62 457.119,850.76 C457.025,861.88 446.502,870.55 445.265,881.61 C443.381,898.47 464.812,925.29 446.854,935.52 C429.993,945.17 392.545,913.28 392.994,895.09 C393.304,882.63 403.063,884.53 398.517,869.78 C395.357,859.51 376.822,844.55 393.014,835.947 C387.436,838.928 412.176,851.99 415.101,852.74 C433.054,857.29 445.673,852.03 445.265,832.769 C445.279,833.711 446.272,833.242 448.682,835.919" fill="#FFFFFE"/>
    <path d="M448.682,835.919 C452.423,840.058 457.162,845.62 457.119,850.76 C457.025,861.88 446.502,870.55 445.265,881.61 C443.381,898.47 464.812,925.29 446.854,935.52 C429.993,945.17 392.545,913.28 392.994,895.09 C393.304,882.63 403.063,884.53 398.517,869.78 C395.357,859.51 376.822,844.55 393.014,835.947 C387.436,838.928 412.176,851.99 415.101,852.74 C433.054,857.29 445.673,852.03 445.265,832.769 C445.279,833.711 446.272,833.242 448.682,835.919 z" fill-opacity="0" stroke="#1A1919" stroke-width="5.669" stroke-linecap="round" stroke-linejoin="round"/>
    <path d="M433.256,226.9 C440.694,241.581 450.749,261.583 455.723,277.441 C463.429,302.064 463.687,328.516 463.701,354.363 C463.715,386.974 455.446,412.849 431.385,435.616 C407.788,457.943 382.813,459.751 351.187,461.964 C328.729,463.521 306.637,468.583 285.389,458.402 C266.671,449.453 253.4,432.55 246.126,413.397 C220.775,346.712 211.799,229.558 283.012,186.208 C312.079,168.527 348.655,160.469 382.715,174.475 C407.507,184.685 422.188,205.079 433.256,226.9" fill="#673423"/>
    <path d="M433.256,226.9 C440.694,241.581 450.749,261.583 455.723,277.441 C463.429,302.064 463.687,328.516 463.701,354.363 C463.715,386.974 455.446,412.849 431.385,435.616 C407.788,457.943 382.813,459.751 351.187,461.964 C328.729,463.521 306.637,468.583 285.389,458.402 C266.671,449.453 253.4,432.55 246.126,413.397 C220.775,346.712 211.799,229.558 283.012,186.208 C312.079,168.527 348.655,160.469 382.715,174.475 C407.507,184.685 422.188,205.079 433.256,226.9 z M611.582,387.967 C611.582,348.54 616.645,319.727 598.954,266.664 C569.423,178.089 506.395,124.97 458.652,104.078 C337.35,51.006 165.506,66.165 102.322,111.658 C31.588,162.578 30.337,223.694 83.404,307.089 C102.679,337.399 126.369,398.069 108.665,415.759" fill-opacity="0" stroke="#1A1919" stroke-width="5.669" stroke-linecap="round" stroke-linejoin="round"/>
    <path d="M216.932,664.998 C257.038,669.798 288.621,659.006 298.887,622.81 C315.452,564.45 388.869,511.638 428.728,563.866 C441.58,580.717 441.975,604.563 455.77,618.316 C464.08,626.599 468.299,646.075 478.186,668.688 C491.291,698.641 495.032,702.381 515.634,721.099 C531.116,735.199 528.687,753.705 489.377,774.302 C465.481,786.832 451.879,802.801 421.881,801.301 C407.626,800.588 378.515,782.505 366.383,780.302 C325.204,772.816 317.197,782.889 274.139,751.052 C263.689,743.331 221.723,704.266 216.932,664.998" fill="#DD4456"/>
    <path d="M216.932,664.998 C257.038,669.798 288.621,659.006 298.887,622.81 C315.452,564.45 388.869,511.638 428.728,563.866 C441.58,580.717 441.975,604.563 455.77,618.316 C464.08,626.599 468.299,646.075 478.186,668.688 C491.291,698.641 495.032,702.381 515.634,721.099 C531.116,735.199 528.687,753.705 489.377,774.302 C465.481,786.832 451.879,802.801 421.881,801.301 C407.626,800.588 378.515,782.505 366.383,780.302 C325.204,772.816 317.197,782.889 274.139,751.052 C263.689,743.331 221.723,704.266 216.932,664.998 z" fill-opacity="0" stroke="#1A1919" stroke-width="5.669" stroke-linecap="round" stroke-linejoin="round"/>
    <path d="M133.767,500.782 C141.395,513.315 144.493,526.923 153.394,529.815 C159.68,531.845 168.515,520.243 170.582,512.946 C174.506,499.122 151.879,496.267 148.654,485.242 C145.345,473.946 152.985,458.946 143.681,449.819 C134.54,440.847 111.819,441.498 101.774,447.076 C92.01,452.495 80.826,467.074 75.674,476.735 C66.416,494.111 72.299,505.267 91.86,511.821 C111.21,518.318 116.142,495.405 133.767,500.782" fill="#F5C6AE"/>
    <path d="M133.767,500.782 C141.395,513.315 144.493,526.923 153.394,529.815 C159.68,531.845 168.515,520.243 170.582,512.946 C174.506,499.122 151.879,496.267 148.654,485.242 C145.345,473.946 152.985,458.946 143.681,449.819 C134.54,440.847 111.819,441.498 101.774,447.076 C92.01,452.495 80.826,467.074 75.674,476.735 C66.416,494.111 72.299,505.267 91.86,511.821 C111.21,518.318 116.142,495.405 133.767,500.782 z" fill-opacity="0" stroke="#1A1919" stroke-width="5.669" stroke-linecap="round" stroke-linejoin="round"/>
    <path d="M114.881,408.11 C124.457,412.68 118.092,443.462 117.103,453.704 C115.691,468.021 113.235,480.56 113.272,495.367 C113.319,514.436 108.145,527.177 91.79,515.589 C82.874,510.751 90.595,477.902 91.72,459.517 C92.184,452.055 86.77,394.699 114.881,408.11" fill="#ED9A7C"/>
    <path d="M114.881,408.11 C124.457,412.68 118.092,443.462 117.103,453.704 C115.691,468.021 113.235,480.56 113.272,495.367 C113.319,514.436 108.145,527.177 91.79,515.589 C82.874,510.751 90.595,477.902 91.72,459.517 C92.184,452.055 86.77,394.699 114.881,408.11 z" fill-opacity="0" stroke="#1A1919" stroke-width="5.669" stroke-linecap="round" stroke-linejoin="round"/>
    <path d="M115.358,458.284 C128.296,441.255 81.679,406.923 80.413,430.933 C79.822,442.141 102.051,475.811 115.358,458.284" fill="#F5C6AE"/>
    <path d="M115.358,458.284 C128.296,441.255 81.679,406.923 80.413,430.933 C79.822,442.141 102.051,475.811 115.358,458.284 z" fill-opacity="0" stroke="#1A1919" stroke-width="5.669" stroke-linecap="round" stroke-linejoin="round"/>
    <path d="M108.22,476.42 C102.998,477.522 67.775,454.938 74.1,448.615 C88.921,433.792 116.23,455.81 112.007,471.363 C110.741,475.975 110.592,475.905 108.22,476.42" fill="#F5C6AE"/>
    <path d="M108.22,476.42 C102.998,477.522 67.775,454.938 74.1,448.615 C88.921,433.792 116.23,455.81 112.007,471.363 C110.741,475.975 110.592,475.905 108.22,476.42 z" fill-opacity="0" stroke="#1A1919" stroke-width="5.669" stroke-linecap="round" stroke-linejoin="round"/>
    <path d="M105.688,490.319 C100.467,491.42 65.254,468.836 71.582,462.517 C86.39,447.686 113.704,469.703 109.48,485.256 C108.215,489.883 108.061,489.798 105.688,490.319" fill="#F5C6AE"/>
    <path d="M105.688,490.319 C100.467,491.42 65.254,468.836 71.582,462.517 C86.39,447.686 113.704,469.703 109.48,485.256 C108.215,489.883 108.061,489.798 105.688,490.319 z" fill-opacity="0" stroke="#1A1919" stroke-width="5.669" stroke-linecap="round" stroke-linejoin="round"/>
    <path d="M75.365,480.208 C83.938,473.177 96.965,472.263 104.868,482.486 C117.439,498.784 92.324,496.005 82.944,495.367" fill="#F5C6AE"/>
    <path d="M75.365,480.208 C83.938,473.177 96.965,472.263 104.868,482.486 C117.439,498.784 92.324,496.005 82.944,495.367" fill-opacity="0" stroke="#1A1919" stroke-width="5.669" stroke-linecap="round" stroke-linejoin="round"/>
    <path d="M155.845,494.111 C153.229,488.927 149.053,484.37 148.476,479.083 C147.65,471.517 157.645,462.771 156.351,456.203 C153.243,440.425 144.395,429.319 130.954,425.87 C118.509,425.139 95.301,441.915 96.022,453.227 C105.229,458.355 112.119,455.72 119.592,448.615 C112.382,456.826 115.41,470.519 123.838,478.943" fill="#F5C6AE"/>
    <path d="M155.845,494.111 C153.229,488.927 149.053,484.37 148.476,479.083 C147.65,471.517 157.645,462.771 156.351,456.203 C153.243,440.425 144.395,429.319 130.954,425.87 C118.509,425.139 95.301,441.915 96.022,453.227 C105.229,458.355 112.119,455.72 119.592,448.615 C112.382,456.826 115.41,470.519 123.838,478.943" fill-opacity="0" stroke="#1A1919" stroke-width="5.669" stroke-linecap="round" stroke-linejoin="round"/>
    <path d="M588.562,470.462 C586.199,478.464 583.387,489.025 574.499,491.908 C568.199,493.943 553.813,489.92 551.746,482.613 C547.822,468.803 570.449,465.939 573.684,454.909 C576.979,443.617 569.338,428.613 578.639,419.486 C587.803,410.514 610.499,411.175 620.554,416.743 C630.327,422.172 641.498,436.741 646.654,446.411 C655.916,463.783 650.029,474.935 630.473,481.492 C611.113,487.985 606.196,465.076 588.562,470.462" fill="#F5C6AE"/>
    <path d="M588.562,470.462 C586.199,478.464 583.387,489.025 574.499,491.908 C568.199,493.943 553.813,489.92 551.746,482.613 C547.822,468.803 570.449,465.939 573.684,454.909 C576.979,443.617 569.338,428.613 578.639,419.486 C587.803,410.514 610.499,411.175 620.554,416.743 C630.327,422.172 641.498,436.741 646.654,446.411 C655.916,463.783 650.029,474.935 630.473,481.492 C611.113,487.985 606.196,465.076 588.562,470.462 z" fill-opacity="0" stroke="#1A1919" stroke-width="5.669" stroke-linecap="round" stroke-linejoin="round"/>
    <path d="M298.775,436.615 C344.601,413.74 418.771,410.449 457.42,448.615 C468.454,459.517 496.548,501.264 508.876,507.316 C534.336,501.18 537.375,472.817 553.462,465.039 C566.113,469.506 589.063,493.785 591.369,502.951 C588.373,525.315 560.127,549.493 538.303,569.927 C505.748,600.386 476.934,569.013 465.853,536.233 C466.316,567.93 466.38,614.733 486.377,642.309 C475.146,651.366 467.596,658.417 453.848,664.947 C439.176,671.922 412.668,676.183 388.335,672.428 C363.154,668.561 337.71,651.405 313.447,649.97 C275.835,647.735 266.559,632.017 266.587,629.735 C266.826,612.423 284.417,620.744 289.887,604.811 C293.235,595.061 280.354,547.384 283.884,542.983 C270.397,559.829 236.912,586.202 232.89,588.312 C211.34,599.614 187.893,589.812 165.394,567.313 C155.038,556.957 141.846,544.528 135.623,527.81 C144.395,517.815 165.351,499.966 176.066,490.727 C190.892,507.316 201.392,514.815 216.046,523.591 C238.41,507.498 245.058,485.905 265.889,466.818 C277.354,456.318 285.182,443.407 298.775,436.615" fill="#E78183"/>
    <path d="M298.775,436.615 C344.601,413.74 418.771,410.449 457.42,448.615 C468.454,459.517 496.548,501.264 508.876,507.316 C534.336,501.18 537.375,472.817 553.462,465.039 C566.113,469.506 589.063,493.785 591.369,502.951 C588.373,525.315 560.127,549.493 538.303,569.927 C505.748,600.386 476.934,569.013 465.853,536.233 C466.316,567.93 466.38,614.733 486.377,642.309 C475.146,651.366 467.596,658.417 453.848,664.947 C439.176,671.922 412.668,676.183 388.335,672.428 C363.154,668.561 337.71,651.405 313.447,649.97 C275.835,647.735 266.559,632.017 266.587,629.735 C266.826,612.423 284.417,620.744 289.887,604.811 C293.235,595.061 280.354,547.384 283.884,542.983 C270.397,559.829 236.912,586.202 232.89,588.312 C211.34,599.614 187.893,589.812 165.394,567.313 C155.038,556.957 141.846,544.528 135.623,527.81 C144.395,517.815 165.351,499.966 176.066,490.727 C190.892,507.316 201.392,514.815 216.046,523.591 C238.41,507.498 245.058,485.905 265.889,466.818 C277.354,456.318 285.182,443.407 298.775,436.615 z" fill-opacity="0" stroke="#1A1919" stroke-width="5.669" stroke-linecap="round" stroke-linejoin="round"/>
    <path d="M305.765,460.675 C297.923,407.899 410.39,401.083 433.382,432.62 C452.381,458.706 420.74,521.06 377.779,470.519 C342.407,513.49 310.265,491.036 305.765,460.675" fill="#FFFFFE"/>
    <path d="M305.765,460.675 C297.923,407.899 410.39,401.083 433.382,432.62 C452.381,458.706 420.74,521.06 377.779,470.519 C342.407,513.49 310.265,491.036 305.765,460.675 z" fill-opacity="0" stroke="#1A1919" stroke-width="5.669" stroke-linecap="round" stroke-linejoin="round"/>
    <path d="M332.287,437.669 C336.533,428.964 353.694,425.224 354.084,424.286 C358.204,414.325 353.268,399.545 357.595,393.865 C362.381,387.564 371.605,396.775 378.65,398.177 C394.335,401.298 393.318,403.891 391.532,425.449 C400.897,427.797 412.279,428.149 415.691,440.2 C423.116,466.399 380.311,469.68 349.978,462.939 C337.654,460.211 326.676,449.2 332.287,437.669" fill="#F5C6AE"/>
    <path d="M332.287,437.669 C336.533,428.964 353.694,425.224 354.084,424.286 C358.204,414.325 353.268,399.545 357.595,393.865 C362.381,387.564 371.605,396.775 378.65,398.177 C394.335,401.298 393.318,403.891 391.532,425.449 C400.897,427.797 412.279,428.149 415.691,440.2 C423.116,466.399 380.311,469.68 349.978,462.939 C337.654,460.211 326.676,449.2 332.287,437.669 z" fill-opacity="0" stroke="#1A1919" stroke-width="5.669" stroke-linecap="round" stroke-linejoin="round"/>
    <path d="M260.882,305.72 C270.717,305.959 274.673,316.483 280.645,323.313 C273.576,315.227 267.126,267.485 282.801,268.146 C288.397,256.314 292.771,242.65 300.421,232.079 C302.812,237.208 304.973,242.748 307.34,248.027 C322.021,237.363 316.982,221.204 324.688,208.173 C331.494,196.665 356.694,199.024 369.608,202.558 C383.113,206.256 393.712,209.87 402.904,220.333 C405.89,223.75 433.354,259.586 430.86,262.029 C468.764,211.488 489.014,300.771 453.843,309.18 C467.033,342.789 436.566,398.549 408.14,408.18 C367.883,421.82 314.647,398.069 293.15,356.373 C272.268,368.552 244.157,357.245 241.767,331.821 C240.866,322.258 244.228,310.67 253.785,307.089 C256.462,306.086 258.811,305.673 260.882,305.72" fill="#F5C6AE"/>
    <path d="M260.882,305.72 C270.717,305.959 274.673,316.483 280.645,323.313 C273.576,315.227 267.126,267.485 282.801,268.146 C288.397,256.314 292.771,242.65 300.421,232.079 C302.812,237.208 304.973,242.748 307.34,248.027 C322.021,237.363 316.982,221.204 324.688,208.173 C331.494,196.665 356.694,199.024 369.608,202.558 C383.113,206.256 393.712,209.87 402.904,220.333 C405.89,223.75 433.354,259.586 430.86,262.029 C468.764,211.488 489.014,300.771 453.843,309.18 C467.033,342.789 436.566,398.549 408.14,408.18 C367.883,421.82 314.647,398.069 293.15,356.373 C272.268,368.552 244.157,357.245 241.767,331.821 C240.866,322.258 244.228,310.67 253.785,307.089 C256.462,306.086 258.811,305.673 260.882,305.72 z M401.788,260.763 C397.307,243.311 369.632,247.821 373.996,267.086 M338.615,280.985 C323.455,265.821 299.47,274.24 309.337,295.483 M384.145,323.524 C385.598,320.626 390.454,312.147 395.512,318.47 C400.561,324.78 398.043,332.368 396.777,336.161 M457.134,263.87 C444.557,260.79 448.092,277.033 449.845,284.345 M274.204,333.63 C271.03,327.279 265.767,320.579 258.004,322.446 C257.264,324.381 256.546,326.533 256.518,328.572" fill-opacity="0" stroke="#1A1919" stroke-width="5.669" stroke-linecap="round" stroke-linejoin="round"/>
    <path d="M384.145,387.967 C395.076,393.217 405.613,370.267 409.467,358.079 C395.512,363.953 380.662,363.189 376.654,360.152 C376.092,368.678 376.218,384.161 384.145,387.967" fill="#E98776"/>
    <path d="M384.145,387.967 C395.076,393.217 405.613,370.267 409.467,358.079 C395.512,363.953 380.662,363.189 376.654,360.152 C376.092,368.678 376.218,384.161 384.145,387.967 z" fill-opacity="0" stroke="#1A1919" stroke-width="5.669" stroke-linecap="round" stroke-linejoin="round"/>
    <path d="M607.447,377.786 C598.35,383.233 604.232,413.139 605.24,423.381 C606.646,437.697 609.098,450.236 609.051,465.039 C609.009,484.117 614.184,496.849 630.548,485.256 C639.463,480.419 631.733,447.569 630.608,429.189 C630.145,421.727 632.647,362.693 607.447,377.786" fill="#ED9A7C"/>
    <path d="M607.447,377.786 C598.35,383.233 604.232,413.139 605.24,423.381 C606.646,437.697 609.098,450.236 609.051,465.039 C609.009,484.117 614.184,496.849 630.548,485.256 C639.463,480.419 631.733,447.569 630.608,429.189 C630.145,421.727 632.647,362.693 607.447,377.786 z" fill-opacity="0" stroke="#1A1919" stroke-width="5.669" stroke-linecap="round" stroke-linejoin="round"/>
    <path d="M606.97,427.961 C594.032,410.922 640.649,376.595 641.915,400.6 C642.506,411.808 620.282,445.488 606.97,427.961" fill="#F5C6AE"/>
    <path d="M606.97,427.961 C594.032,410.922 640.649,376.595 641.915,400.6 C642.506,411.808 620.282,445.488 606.97,427.961 z" fill-opacity="0" stroke="#1A1919" stroke-width="5.669" stroke-linecap="round" stroke-linejoin="round"/>
    <path d="M614.113,446.092 C619.33,447.199 654.543,424.615 648.229,418.29 C633.407,403.469 606.098,425.477 610.316,441.03 C611.582,445.657 611.741,445.572 614.113,446.092" fill="#F5C6AE"/>
    <path d="M614.113,446.092 C619.33,447.199 654.543,424.615 648.229,418.29 C633.407,403.469 606.098,425.477 610.316,441.03 C611.582,445.657 611.741,445.572 614.113,446.092 z" fill-opacity="0" stroke="#1A1919" stroke-width="5.669" stroke-linecap="round" stroke-linejoin="round"/>
    <path d="M616.645,459.986 C621.857,461.097 657.074,438.513 650.76,432.189 C635.929,417.367 608.629,439.384 612.848,454.938 C614.123,459.555 614.268,459.48 616.645,459.986" fill="#F5C6AE"/>
    <path d="M616.645,459.986 C621.857,461.097 657.074,438.513 650.76,432.189 C635.929,417.367 608.629,439.384 612.848,454.938 C614.123,459.555 614.268,459.48 616.645,459.986 z" fill-opacity="0" stroke="#1A1919" stroke-width="5.669" stroke-linecap="round" stroke-linejoin="round"/>
    <path d="M646.963,449.88 C638.399,442.844 625.363,441.93 617.46,452.154 C604.879,468.451 630.004,465.681 639.384,465.039" fill="#F5C6AE"/>
    <path d="M646.963,449.88 C638.399,442.844 625.363,441.93 617.46,452.154 C604.879,468.451 630.004,465.681 639.384,465.039" fill-opacity="0" stroke="#1A1919" stroke-width="5.669" stroke-linecap="round" stroke-linejoin="round"/>
    <path d="M563.563,468.836 C566.188,463.657 573.29,454.042 573.853,448.75 C574.682,441.185 564.684,432.438 565.978,425.87 C569.095,410.107 579.566,405.217 591.369,395.542 C603.811,394.811 627.037,411.597 626.306,422.904 C617.108,428.022 610.218,425.392 602.736,418.29 C609.937,426.503 602.54,438.513 597.267,448.615" fill="#F5C6AE"/>
    <path d="M563.563,468.836 C566.188,463.657 573.29,454.042 573.853,448.75 C574.682,441.185 564.684,432.438 565.978,425.87 C569.095,410.107 579.566,405.217 591.369,395.542 C603.811,394.811 627.037,411.597 626.306,422.904 C617.108,428.022 610.218,425.392 602.736,418.29 C609.937,426.503 602.54,438.513 597.267,448.615 M329.77,315.1 C322.752,302.008 344.282,297.62 343.663,313.834 M386.629,297.409 C377.779,284.767 390.421,274.67 396.735,292.361 M31.715,178.23 C24.993,195.367 21.566,224.345 37.335,240.006 M12.056,191.326 C2.887,204.555 4.574,225.021 8.314,240.006 M558.679,161.373 C574.147,173.899 587.16,194.617 592.373,213.794 M581.142,161.373 C590.306,170.233 596.423,182.626 599.868,195.076 M770.249,378.241 C770.249,338.81 765.187,309.995 782.877,256.923 C812.413,168.358 904.75,100.211 957.28,67.727 C1109.28,-26.273 1288.77,0.381 1341.17,64.042 C1396.59,131.318 1371.13,206.308 1298.44,297.358 C1276.02,325.436 1255.46,388.337 1273.17,406.033" fill-opacity="0" stroke="#1A1919" stroke-width="5.669" stroke-linecap="round" stroke-linejoin="round"/>
    <path d="M1006.95,914.01 C987.43,948.33 937,988.92 909.82,954.48 C899.13,940.97 910.54,916.2 921.51,904.57 C939.72,885.28 959.53,877.3 964.82,850.76 C970.05,824.571 996.54,827.814 1013.7,849.97 C1029.26,870.04 1018.68,893.41 1006.95,914.01" fill="#87693F"/>
    <path d="M1006.95,914.01 C987.43,948.33 937,988.92 909.82,954.48 C899.13,940.97 910.54,916.2 921.51,904.57 C939.72,885.28 959.53,877.3 964.82,850.76 C970.05,824.571 996.54,827.814 1013.7,849.97 C1029.26,870.04 1018.68,893.41 1006.95,914.01 z" fill-opacity="0" stroke="#1A1919" stroke-width="5.669" stroke-linecap="round" stroke-linejoin="round"/>
    <path d="M1135.08,796.024 C1120.69,826.605 1085.49,842.3 1076.67,800.003 C1070.53,770.571 1073.24,738.677 1091.66,725.036 C1144.31,686.027 1146.31,772.159 1135.08,796.024" fill="#87693F"/>
    <path d="M1135.08,796.024 C1120.69,826.605 1085.49,842.3 1076.67,800.003 C1070.53,770.571 1073.24,738.677 1091.66,725.036 C1144.31,686.027 1146.31,772.159 1135.08,796.024 z" fill-opacity="0" stroke="#1A1919" stroke-width="5.669" stroke-linecap="round" stroke-linejoin="round"/>
    <path d="M1104.68,684.873 C1090.79,643.193 1089.35,561.313 1057.85,543.314 C1031.81,539.91 974.65,535.67 949.31,544.417 C921.31,554.074 935.05,555.063 932.83,580.408 C929.47,619.089 911.51,706.459 915.98,745.525 C920.72,786.808 929.45,789.329 937.04,825.555 C943.01,854.07 928.96,869.13 962.31,873.56 C986.36,876.78 1016.99,879.05 1027.19,856.73 C1023.35,834.299 1019.09,825.347 1011.35,807.3 C1001.25,783.694 998.59,774.678 997.85,760.803 C996.73,739.522 996.74,696.771 1004.22,670.568 C1019.38,695.505 1020.38,703.282 1030.54,721.943 C1042.53,743.899 1046.66,776.964 1074.35,775.839 C1129.9,773.622 1118.16,725.303 1104.68,684.873" fill="#6480A9"/>
    <path d="M1104.68,684.873 C1090.79,643.193 1089.35,561.313 1057.85,543.314 C1031.81,539.91 974.65,535.67 949.31,544.417 C921.31,554.074 935.05,555.063 932.83,580.408 C929.47,619.089 911.51,706.459 915.98,745.525 C920.72,786.808 929.45,789.329 937.04,825.555 C943.01,854.07 928.96,869.13 962.31,873.56 C986.36,876.78 1016.99,879.05 1027.19,856.73 C1023.35,834.299 1019.09,825.347 1011.35,807.3 C1001.25,783.694 998.59,774.678 997.85,760.803 C996.73,739.522 996.74,696.771 1004.22,670.568 C1019.38,695.505 1020.38,703.282 1030.54,721.943 C1042.53,743.899 1046.66,776.964 1074.35,775.839 C1129.9,773.622 1118.16,725.303 1104.68,684.873 z" fill-opacity="0" stroke="#1A1919" stroke-width="5.669" stroke-linecap="round" stroke-linejoin="round"/>
    <path d="M1253.05,490.572 C1246.03,499.15 1242.89,509.613 1233.99,512.495 C1227.69,514.534 1213.33,510.513 1211.24,503.214 C1207.33,489.396 1229.56,482.107 1232.78,471.076 C1236.1,459.78 1228.84,449.214 1238.15,440.087 C1247.31,431.116 1270.02,431.767 1280.06,437.345 C1289.82,442.759 1301.01,457.342 1306.17,467.003 C1315.42,484.37 1309.54,495.527 1289.98,502.089 C1270.62,508.586 1270.99,492.92 1253.05,490.572" fill="#F5C6AE"/>
    <path d="M1253.05,490.572 C1246.03,499.15 1242.89,509.613 1233.99,512.495 C1227.69,514.534 1213.33,510.513 1211.24,503.214 C1207.33,489.396 1229.56,482.107 1232.78,471.076 C1236.1,459.78 1228.84,449.214 1238.15,440.087 C1247.31,431.116 1270.02,431.767 1280.06,437.345 C1289.82,442.759 1301.01,457.342 1306.17,467.003 C1315.42,484.37 1309.54,495.527 1289.98,502.089 C1270.62,508.586 1270.99,492.92 1253.05,490.572 z" fill-opacity="0" stroke="#1A1919" stroke-width="5.669" stroke-linecap="round" stroke-linejoin="round"/>
    <path d="M1266.95,398.378 C1257.37,402.949 1263.73,433.745 1264.75,443.974 C1266.15,458.289 1268.61,470.828 1268.56,485.636 C1268.51,504.714 1273.7,517.446 1290.04,505.858 C1298.97,501.021 1291.24,468.17 1290.11,449.777 C1289.65,442.324 1295.06,384.977 1266.95,398.378" fill="#8AB3C2"/>
    <path d="M1266.95,398.378 C1257.37,402.949 1263.73,433.745 1264.75,443.974 C1266.15,458.289 1268.61,470.828 1268.56,485.636 C1268.51,504.714 1273.7,517.446 1290.04,505.858 C1298.97,501.021 1291.24,468.17 1290.11,449.777 C1289.65,442.324 1295.06,384.977 1266.95,398.378 z" fill-opacity="0" stroke="#1A1919" stroke-width="5.669" stroke-linecap="round" stroke-linejoin="round"/>
    <path d="M1266.46,448.553 C1253.54,431.524 1300.15,397.193 1301.41,421.193 C1302.01,432.409 1279.79,466.079 1266.46,448.553" fill="#F5C6AE"/>
    <path d="M1266.46,448.553 C1253.54,431.524 1300.15,397.193 1301.41,421.193 C1302.01,432.409 1279.79,466.079 1266.46,448.553 z" fill-opacity="0" stroke="#1A1919" stroke-width="5.669" stroke-linecap="round" stroke-linejoin="round"/>
    <path d="M1273.6,466.689 C1278.83,467.805 1312.12,446.669 1307.73,438.883 C1295.96,418.033 1260.21,444.986 1269.82,461.631 C1272.22,465.78 1271.24,466.173 1273.6,466.689" fill="#F5C6AE"/>
    <path d="M1273.6,466.689 C1278.83,467.805 1312.12,446.669 1307.73,438.883 C1295.96,418.033 1260.21,444.986 1269.82,461.631 C1272.22,465.78 1271.24,466.173 1273.6,466.689 z" fill-opacity="0" stroke="#1A1919" stroke-width="5.669" stroke-linecap="round" stroke-linejoin="round"/>
    <path d="M1276.13,480.587 C1281.35,481.699 1314.67,467.172 1310.27,452.786 C1304.12,432.742 1264.43,459.03 1272.35,475.539 C1274.42,479.852 1273.77,480.076 1276.13,480.587" fill="#F5C6AE"/>
    <path d="M1276.13,480.587 C1281.35,481.699 1314.67,467.172 1310.27,452.786 C1304.12,432.742 1264.43,459.03 1272.35,475.539 C1274.42,479.852 1273.77,480.076 1276.13,480.587 z" fill-opacity="0" stroke="#1A1919" stroke-width="5.669" stroke-linecap="round" stroke-linejoin="round"/>
    <path d="M1306.47,470.477 C1297.89,463.436 1284.86,462.532 1276.96,472.764 C1264.38,489.053 1289.51,486.283 1298.88,485.636" fill="#F5C6AE"/>
    <path d="M1306.47,470.477 C1297.89,463.436 1284.86,462.532 1276.96,472.764 C1264.38,489.053 1289.51,486.283 1298.88,485.636" fill-opacity="0" stroke="#1A1919" stroke-width="5.669" stroke-linecap="round" stroke-linejoin="round"/>
    <path d="M1224.17,481.206 C1230.43,478.099 1232.78,474.639 1233.36,469.352 C1234.19,461.786 1224.19,453.048 1225.48,446.472 C1228.59,430.694 1240.56,420.376 1250.88,416.139 C1263.32,415.408 1286.53,432.199 1285.81,443.505 C1276.61,448.623 1269.72,445.99 1262.24,438.883 C1269.44,447.105 1266.42,460.787 1257.99,469.211" fill="#F5C6AE"/>
    <path d="M1224.17,481.206 C1230.43,478.099 1232.78,474.639 1233.36,469.352 C1234.19,461.786 1224.19,453.048 1225.48,446.472 C1228.59,430.694 1240.56,420.376 1250.88,416.139 C1263.32,415.408 1286.53,432.199 1285.81,443.505 C1276.61,448.623 1269.72,445.99 1262.24,438.883 C1269.44,447.105 1266.42,460.787 1257.99,469.211" fill-opacity="0" stroke="#1A1919" stroke-width="5.669" stroke-linecap="round" stroke-linejoin="round"/>
    <path d="M788.957,464.852 C797.53,473.43 798.444,479.289 807.346,482.177 C813.632,484.211 820.4,479.167 822.473,471.868 C826.387,458.055 810.895,450.911 807.66,439.886 C804.36,428.584 812.493,418.881 803.197,409.755 C794.043,400.783 771.332,401.444 761.277,407.013 C751.504,412.441 740.329,427.024 735.178,436.68 C725.924,454.052 731.803,465.203 751.354,471.761 C770.713,478.253 772.569,467.172 788.957,464.852" fill="#F5C6AE"/>
    <path d="M788.957,464.852 C797.53,473.43 798.444,479.289 807.346,482.177 C813.632,484.211 820.4,479.167 822.473,471.868 C826.387,458.055 810.895,450.911 807.66,439.886 C804.36,428.584 812.493,418.881 803.197,409.755 C794.043,400.783 771.332,401.444 761.277,407.013 C751.504,412.441 740.329,427.024 735.178,436.68 C725.924,454.052 731.803,465.203 751.354,471.761 C770.713,478.253 772.569,467.172 788.957,464.852 z" fill-opacity="0" stroke="#1A1919" stroke-width="5.669" stroke-linecap="round" stroke-linejoin="round"/>
    <path d="M1083.06,426.883 C1037.23,404.017 972.23,394.652 924.4,438.883 C913.02,449.411 886.39,484.892 873.36,489.317 C852.816,482.413 843.359,469.817 828.369,455.308 C815.713,459.78 788.713,483.935 790.457,493.22 C793.635,510.076 821.704,539.758 843.548,560.196 C876.08,590.655 899.38,558.241 921.84,528.287 C921.15,575.819 933.36,606.311 913.86,643.809 C927.33,660.642 937.44,665.488 982.85,663.308 C1008.85,662.071 1081.59,673.406 1108.85,643.809 C1104.05,619.116 1099.19,627.076 1096.85,604.811 C1095.29,589.97 1091.2,553.459 1097.93,533.238 C1111.42,550.084 1127.72,581.458 1131.63,583.779 C1159.51,600.302 1170.34,589.812 1188.34,579.312 C1198.63,573.308 1240.84,532.814 1246.21,518.074 C1240.84,504.316 1216.49,490.24 1205.77,481.009 C1195.84,496.816 1183.84,510.316 1163.65,521.439 C1149.34,501.316 1140.34,472.817 1120.29,453.433 C1106.69,440.279 1096.63,433.67 1083.06,426.883" fill="#849890"/>
    <path d="M1083.06,426.883 C1037.23,404.017 972.23,394.652 924.4,438.883 C913.02,449.411 886.39,484.892 873.36,489.317 C852.816,482.413 843.359,469.817 828.369,455.308 C815.713,459.78 788.713,483.935 790.457,493.22 C793.635,510.076 821.704,539.758 843.548,560.196 C876.08,590.655 899.38,558.241 921.84,528.287 C921.15,575.819 933.36,606.311 913.86,643.809 C927.33,660.642 937.44,665.488 982.85,663.308 C1008.85,662.071 1081.59,673.406 1108.85,643.809 C1104.05,619.116 1099.19,627.076 1096.85,604.811 C1095.29,589.97 1091.2,553.459 1097.93,533.238 C1111.42,550.084 1127.72,581.458 1131.63,583.779 C1159.51,600.302 1170.34,589.812 1188.34,579.312 C1198.63,573.308 1240.84,532.814 1246.21,518.074 C1240.84,504.316 1216.49,490.24 1205.77,481.009 C1195.84,496.816 1183.84,510.316 1163.65,521.439 C1149.34,501.316 1140.34,472.817 1120.29,453.433 C1106.69,440.279 1096.63,433.67 1083.06,426.883 z" fill-opacity="0" stroke="#1A1919" stroke-width="5.669" stroke-linecap="round" stroke-linejoin="round"/>
    <path d="M1076.08,450.944 C1087.16,402.962 982.61,388.201 959.62,419.74 C940.63,445.821 951.37,474.259 990.11,484.37 C1019.82,492.133 1069.18,480.855 1076.08,450.944" fill="#849890"/>
    <path d="M1076.08,450.944 C1087.16,402.962 982.61,388.201 959.62,419.74 C940.63,445.821 951.37,474.259 990.11,484.37 C1019.82,492.133 1069.18,480.855 1076.08,450.944 z" fill-opacity="0" stroke="#1A1919" stroke-width="5.669" stroke-linecap="round" stroke-linejoin="round"/>
    <path d="M1055.82,433.829 C1050.77,422.036 1035.54,417.47 1035.44,416.477 C1034.64,408.696 1032.29,390.742 1029.17,382.164 C1025.79,372.855 1010.4,387.011 1003.18,388.446 C986.74,391.712 990.17,398.289 991.73,417.264 C980.08,415.896 966.63,426.376 967.38,438.878 C969.12,468.227 1000.42,471.587 1030.74,464.852 C1043.07,462.11 1060.88,445.623 1055.82,433.829" fill="#F5C6AE"/>
    <path d="M1055.82,433.829 C1050.77,422.036 1035.54,417.47 1035.44,416.477 C1034.64,408.696 1032.29,390.742 1029.17,382.164 C1025.79,372.855 1010.4,387.011 1003.18,388.446 C986.74,391.712 990.17,398.289 991.73,417.264 C980.08,415.896 966.63,426.376 967.38,438.878 C969.12,468.227 1000.42,471.587 1030.74,464.852 C1043.07,462.11 1060.88,445.623 1055.82,433.829 z" fill-opacity="0" stroke="#1A1919" stroke-width="5.669" stroke-linecap="round" stroke-linejoin="round"/>
    <path d="M1120.84,290.941 C1122.44,260.271 1138.12,197.186 1060.36,187.492 C995.47,179.383 975.83,203.204 952.56,247.009 C914.52,202.576 892.82,291.048 928.01,299.458 C920.38,351.142 941.43,385.68 973.68,398.449 C1007.99,412.047 1067.2,388.337 1088.68,346.652 C1129.15,370.24 1162.97,311.204 1120.84,290.941" fill="#F5C6AE"/>
    <path d="M1120.84,290.941 C1122.44,260.271 1138.12,197.186 1060.36,187.492 C995.47,179.383 975.83,203.204 952.56,247.009 C914.52,202.576 892.82,291.048 928.01,299.458 C920.38,351.142 941.43,385.68 973.68,398.449 C1007.99,412.047 1067.2,388.337 1088.68,346.652 C1129.15,370.24 1162.97,311.204 1120.84,290.941 z" fill-opacity="0" stroke="#1A1919" stroke-width="5.669" stroke-linecap="round" stroke-linejoin="round"/>
    <path d="M991.38,216.493 C1004.61,209.655 1026.97,207.227 1041.43,209.636 C1038.13,213.794 1032.74,218.519 1027.56,221.697 C1035.69,224.533 1044.83,223.553 1053.71,224.251 C1050.35,226.633 1048.9,230.927 1047.27,232.661 C1066.69,233.824 1087.89,221.415 1099.19,243.095 C1106.44,257.008 1104.08,295.586 1098.79,315.058 C1145.54,285.991 1158.77,219.391 1100.04,183.639 C1070.99,165.953 1035.61,157.108 1001.54,171.115 C986.64,177.232 973.96,187.779 963.33,200.224 C950.81,214.863 943.19,242.936 948.45,255.784 C948.37,254.111 956.68,246.447 968.36,234.733 C970.55,232.525 988.56,217.956 991.38,216.493" fill="#3D1D12"/>
    <path d="M991.38,216.493 C1004.61,209.655 1026.97,207.227 1041.43,209.636 C1038.13,213.794 1032.74,218.519 1027.56,221.697 C1035.69,224.533 1044.83,223.553 1053.71,224.251 C1050.35,226.633 1048.9,230.927 1047.27,232.661 C1066.69,233.824 1087.89,221.415 1099.19,243.095 C1106.44,257.008 1104.08,295.586 1098.79,315.058 C1145.54,285.991 1158.77,219.391 1100.04,183.639 C1070.99,165.953 1035.61,157.108 1001.54,171.115 C986.64,177.232 973.96,187.779 963.33,200.224 C950.81,214.863 943.19,242.936 948.45,255.784 C948.37,254.111 956.68,246.447 968.36,234.733 C970.55,232.525 988.56,217.956 991.38,216.493 z M988.79,245.716 C993.29,228.255 1022.26,235.548 1017.9,254.814 M1045.19,265.727 C1065.92,253.141 1082.35,264.508 1072.5,285.742" fill-opacity="0" stroke="#1A1919" stroke-width="5.669" stroke-linecap="round" stroke-linejoin="round"/>
    <path d="M989.41,266.917 C997.27,271.146 988.82,285.063 981.33,278.045 C976.7,273.714 981.81,262.802 989.41,266.917" fill="#1A1919"/>
    <path d="M1042.6,294.751 C1048.91,301.079 1039.71,311.373 1033.29,304.357 C1028.86,299.519 1036.28,288.438 1042.6,294.751" fill="#1A1919"/>
    <path d="M997.7,313.792 C996.23,310.896 991.38,302.415 986.32,308.74 C981.27,315.058 983.79,322.638 985.07,326.42 M921.88,255.667 C930.91,245.857 933.74,267.311 932,274.623 M1107.63,323.904 C1110.8,317.552 1123.38,306.115 1125.31,318.845" fill-opacity="0" stroke="#1A1919" stroke-width="5.669" stroke-linecap="round" stroke-linejoin="round"/>
    <path d="M997.7,378.241 C986.76,383.486 976.22,360.545 972.36,348.349 C986.32,354.222 1001.17,353.462 1005.18,350.425 C1005.74,358.947 1005.62,374.43 997.7,378.241" fill="#E98776"/>
    <path d="M997.7,378.241 C986.76,383.486 976.22,360.545 972.36,348.349 C986.32,354.222 1001.17,353.462 1005.18,350.425 C1005.74,358.947 1005.62,374.43 997.7,378.241 z" fill-opacity="0" stroke="#1A1919" stroke-width="5.669" stroke-linecap="round" stroke-linejoin="round"/>
    <path d="M774.384,368.06 C783.482,373.501 777.59,403.412 776.601,413.65 C775.199,427.966 772.738,440.505 772.775,455.308 C772.822,474.386 767.647,487.117 751.293,475.539 C742.377,470.693 750.098,437.842 751.232,419.458 C751.687,411.995 749.184,352.961 774.384,368.06" fill="#8AB3C2"/>
    <path d="M774.384,368.06 C783.482,373.501 777.59,403.412 776.601,413.65 C775.199,427.966 772.738,440.505 772.775,455.308 C772.822,474.386 767.647,487.117 751.293,475.539 C742.377,470.693 750.098,437.842 751.232,419.458 C751.687,411.995 749.184,352.961 774.384,368.06 z" fill-opacity="0" stroke="#1A1919" stroke-width="5.669" stroke-linecap="round" stroke-linejoin="round"/>
    <path d="M774.861,418.22 C787.799,401.196 741.182,366.865 739.916,390.868 C739.326,402.076 761.545,435.756 774.861,418.22" fill="#F5C6AE"/>
    <path d="M774.861,418.22 C787.799,401.196 741.182,366.865 739.916,390.868 C739.326,402.076 761.545,435.756 774.861,418.22 z" fill-opacity="0" stroke="#1A1919" stroke-width="5.669" stroke-linecap="round" stroke-linejoin="round"/>
    <path d="M767.718,436.361 C762.501,437.472 729.665,418.825 733.603,408.56 C741.111,388.985 775.733,415.759 771.51,431.313 C770.249,435.925 770.095,435.855 767.718,436.361" fill="#F5C6AE"/>
    <path d="M767.718,436.361 C762.501,437.472 729.665,418.825 733.603,408.56 C741.111,388.985 775.733,415.759 771.51,431.313 C770.249,435.925 770.095,435.855 767.718,436.361 z" fill-opacity="0" stroke="#1A1919" stroke-width="5.669" stroke-linecap="round" stroke-linejoin="round"/>
    <path d="M765.187,450.264 C759.983,451.37 721.874,435.18 731.076,422.458 C743.361,405.48 773.202,429.654 768.983,445.206 C767.718,449.819 767.554,449.748 765.187,450.264" fill="#F5C6AE"/>
    <path d="M765.187,450.264 C759.983,451.37 721.874,435.18 731.076,422.458 C743.361,405.48 773.202,429.654 768.983,445.206 C767.718,449.819 767.554,449.748 765.187,450.264 z" fill-opacity="0" stroke="#1A1919" stroke-width="5.669" stroke-linecap="round" stroke-linejoin="round"/>
    <path d="M734.868,440.144 C743.441,433.113 756.468,432.212 764.371,442.436 C776.947,458.72 751.827,455.954 742.457,455.308" fill="#F5C6AE"/>
    <path d="M734.868,440.144 C743.441,433.113 756.468,432.212 764.371,442.436 C776.947,458.72 751.827,455.954 742.457,455.308" fill-opacity="0" stroke="#1A1919" stroke-width="5.669" stroke-linecap="round" stroke-linejoin="round"/>
    <path d="M820.916,458.594 C816.248,456.274 808.551,444.321 807.97,439.019 C807.149,431.467 817.147,422.72 815.854,416.139 C812.746,400.37 801.412,389.196 790.457,385.821 C778.017,385.089 754.795,401.866 755.525,413.177 C760.092,421.943 772.879,420.47 780.351,413.365 C773.146,421.581 774.918,432.072 784.564,438.883" fill="#F5C6AE"/>
  </g>
</svg>
