<?xml version="1.0" encoding="UTF-8"?>
<!DOCTYPE svg PUBLIC "-//W3C//DTD SVG 1.1//EN" "http://www.w3.org/Graphics/SVG/1.1/DTD/svg11.dtd">
<svg version="1.1" xmlns="http://www.w3.org/2000/svg" xmlns:xlink="http://www.w3.org/1999/xlink" x="0" y="0" width="364" height="660" viewBox="0, 0, 364, 660">
  <g id="Layer_1">
    <g>
      <path d="M121.4,288.314 L97.041,268.487 L97.042,268.487 L94.974,266.805 L92.342,264.663 C97.33,257.425 100.142,246.84 100.142,246.84 C100.142,246.84 103.012,241.709 108.34,234.442 C110.898,230.958 113.275,226.77 114.266,222.807 L114.267,222.806 L114.266,222.806 C114.509,221.834 114.664,220.877 114.721,219.946 C116.739,220.47 120.353,221.36 126.624,222.84 C126.624,222.84 130.464,224.344 136.689,224.594 C147.358,231.274 160.22,235.59 175.355,236.651 L174.902,241.44 L172.178,243.015 C171.068,243.329 169.944,243.686 168.825,244.075 C167.168,244.143 165.462,244.233 163.765,244.349 L163.765,242.991 L157.688,243.557 L157.688,244.904 C157.637,244.91 157.585,244.916 157.534,244.921 C157.298,244.919 156.987,244.919 156.616,244.926 L152.271,244.909 L152.303,245.263 C148.992,245.735 145.197,246.837 143.706,249.391 C136.581,261.594 125.002,275.293 125.002,275.293 L129.323,278.668 C125.324,283.386 122.249,287.137 121.4,288.314 M258.366,310.803 L257.621,311.031 L257.621,309.626 C257.854,310.032 258.114,310.415 258.366,310.803 M259.425,271.242 C258.798,271.579 258.203,272.106 257.648,272.79 L257.648,263.673 C257.648,263.881 257.597,264.077 257.522,264.266 C257.002,259.579 254.388,255.885 252.248,252.675 C249.861,249.093 246.041,246.228 246.041,245.391 L246.041,240.776 C247.539,240.428 248.671,239.903 248.671,239.097 C248.671,238.508 248.064,238.069 247.156,237.739 L247.156,236.502 C247.156,236.129 246.926,235.821 246.563,235.559 C246.554,235.529 246.554,235.497 246.544,235.469 C246.92,235.205 247.156,234.891 247.156,234.509 L247.156,233.741 C247.156,233.463 247.038,233.22 246.827,233.006 C247.038,232.792 247.156,232.549 247.156,232.272 L247.156,231.504 C247.156,231.138 246.946,230.832 246.596,230.574 C246.159,228.682 239.424,228.626 238.635,228.626 C237.843,228.626 231.11,228.682 230.673,230.574 C230.323,230.832 230.111,231.138 230.111,231.504 L230.111,232.272 C230.111,232.549 230.231,232.792 230.44,233.006 C230.231,233.22 230.111,233.463 230.111,233.741 L230.111,234.509 C230.111,234.89 230.348,235.205 230.725,235.469 C230.714,235.497 230.714,235.529 230.705,235.559 C230.342,235.821 230.111,236.129 230.111,236.502 L230.111,237.739 C229.204,238.07 228.599,238.508 228.599,239.097 C228.599,239.882 229.675,240.401 231.117,240.749 L231.117,245.391 C231.117,246.228 227.296,249.093 224.908,252.675 C224.727,252.946 224.542,253.224 224.356,253.501 C223.474,252.127 222.624,250.75 221.831,249.391 C220.352,246.86 216.611,245.754 213.321,245.276 L213.354,244.909 L208.936,244.926 C208.598,244.92 208.314,244.919 208.086,244.921 C208.007,244.912 207.926,244.903 207.848,244.894 L207.848,243.557 L201.771,242.991 L201.771,244.342 C200.069,244.227 198.358,244.137 196.698,244.069 C195.599,243.688 194.496,243.337 193.406,243.029 L190.659,241.44 L190.206,236.65 C205.329,235.585 218.182,231.27 228.845,224.594 C235.071,224.344 238.912,222.84 238.912,222.84 C252.181,219.707 253.566,219.221 253.064,219.237 C300.47,212.661 301.768,152.793 284.443,88.831 C275.917,57.352 258.213,33.571 236.191,19.878 C232.252,16.641 227.066,14.265 221.59,12.534 C209.31,7.715 196.148,5.743 182.768,7.001 C138.141,2.804 95.862,34.303 81.093,88.831 C66.51,142.669 65.125,193.603 93.322,212.3 C88.551,215.104 84.295,219.581 81.444,224.275 C75.203,234.557 67.506,242.742 67.643,256.926 C67.668,259.464 67.141,259.768 68.296,263.237 C69.327,266.336 71.44,268.48 73.558,269.873 L75.667,272.051 C86.287,283.06 108.194,305.583 113.241,309.293 C125.953,318.642 134.893,304.319 138.587,299.777 C139.147,299.088 142.169,295.636 145.773,291.519 L153.19,297.313 L153.316,319.932 L152.383,319.932 L151.532,327.141 C151.532,327.141 143.696,346.59 138.036,377.32 C132.376,408.049 131.346,478.352 131.346,478.352 L138.053,478.352 C139.113,508.668 140.259,539.597 140.595,548.614 L143.185,636.182 C139.207,637.177 135.304,639.013 132.763,642.325 C131.038,644.575 130.165,646.354 129.775,647.753 C129.774,647.753 129.769,647.756 129.769,647.756 C126.775,653.188 129.058,655.445 129.058,655.445 L157.933,655.195 L157.933,635.353 C157.933,635.353 157.921,635.352 157.919,635.351 L165.083,542.318 L171.2,478.352 L194.734,478.352 L202.451,551.235 L208.928,635.351 C208.925,635.352 208.914,635.353 208.914,635.353 L208.914,655.195 L237.789,655.445 C237.789,655.445 240.072,653.188 237.078,647.756 C237.078,647.756 237.073,647.753 237.072,647.753 C236.682,646.354 235.809,644.575 234.084,642.325 C231.542,639.012 227.639,637.177 223.66,636.182 L228.33,478.352 L234.19,478.352 C234.19,478.352 233.161,408.049 227.501,377.32 C221.84,346.59 214.005,327.141 214.005,327.141 L213.153,319.932 L212.22,319.932 L212.331,300.115 L219.537,321.985 L219.537,335.886 C219.537,343.764 223.479,349.215 226.344,349.215 C229.21,349.215 230.52,345.914 230.52,345.914 L232.671,346.034 C232.671,346.034 232.907,347.943 233.385,349.137 C233.864,350.331 235.416,351.763 236.728,351.763 L240.428,351.763 C241.742,351.763 243.294,350.331 243.772,349.137 C244.25,347.943 244.487,346.034 244.487,346.034 L246.637,345.914 C246.637,345.914 247.947,349.215 250.813,349.215 C253.676,349.215 257.621,343.764 257.621,335.886 L257.621,328.592 L265.008,325.391 C269.735,325.395 282.916,323.482 284.492,302.233 C286.415,276.284 268.482,266.379 259.425,271.242" fill="#797979"/>
      <path d="M121.4,288.314 L97.041,268.487 L97.042,268.487 L94.974,266.805 L92.342,264.663 C97.33,257.425 100.142,246.84 100.142,246.84 C100.142,246.84 103.012,241.709 108.34,234.442 C110.898,230.958 113.275,226.77 114.266,222.807 L114.267,222.806 L114.266,222.806 C114.509,221.834 114.664,220.877 114.721,219.946 C116.739,220.47 120.353,221.36 126.624,222.84 C126.624,222.84 130.464,224.344 136.689,224.594 C147.358,231.274 160.22,235.59 175.355,236.651 L174.902,241.44 L172.178,243.015 C171.068,243.329 169.944,243.686 168.825,244.075 C167.168,244.143 165.462,244.233 163.765,244.349 L163.765,242.991 L157.688,243.557 L157.688,244.904 C157.637,244.91 157.585,244.916 157.534,244.921 C157.298,244.919 156.987,244.919 156.616,244.926 L152.271,244.909 L152.303,245.263 C148.992,245.735 145.197,246.837 143.706,249.391 C136.581,261.594 125.002,275.293 125.002,275.293 L129.323,278.668 C125.324,283.386 122.249,287.137 121.4,288.314 z M258.366,310.803 L257.621,311.031 L257.621,309.626 C257.854,310.032 258.114,310.415 258.366,310.803 z M259.425,271.242 C258.798,271.579 258.203,272.106 257.648,272.79 L257.648,263.673 C257.648,263.881 257.597,264.077 257.522,264.266 C257.002,259.579 254.388,255.885 252.248,252.675 C249.861,249.093 246.041,246.228 246.041,245.391 L246.041,240.776 C247.539,240.428 248.671,239.903 248.671,239.097 C248.671,238.508 248.064,238.069 247.156,237.739 L247.156,236.502 C247.156,236.129 246.926,235.821 246.563,235.559 C246.554,235.529 246.554,235.497 246.544,235.469 C246.92,235.205 247.156,234.891 247.156,234.509 L247.156,233.741 C247.156,233.463 247.038,233.22 246.827,233.006 C247.038,232.792 247.156,232.549 247.156,232.272 L247.156,231.504 C247.156,231.138 246.946,230.832 246.596,230.574 C246.159,228.682 239.424,228.626 238.635,228.626 C237.843,228.626 231.11,228.682 230.673,230.574 C230.323,230.832 230.111,231.138 230.111,231.504 L230.111,232.272 C230.111,232.549 230.231,232.792 230.44,233.006 C230.231,233.22 230.111,233.463 230.111,233.741 L230.111,234.509 C230.111,234.89 230.348,235.205 230.725,235.469 C230.714,235.497 230.714,235.529 230.705,235.559 C230.342,235.821 230.111,236.129 230.111,236.502 L230.111,237.739 C229.204,238.07 228.599,238.508 228.599,239.097 C228.599,239.882 229.675,240.401 231.117,240.749 L231.117,245.391 C231.117,246.228 227.296,249.093 224.908,252.675 C224.727,252.946 224.542,253.224 224.356,253.501 C223.474,252.127 222.624,250.75 221.831,249.391 C220.352,246.86 216.611,245.754 213.321,245.276 L213.354,244.909 L208.936,244.926 C208.598,244.92 208.314,244.919 208.086,244.921 C208.007,244.912 207.926,244.903 207.848,244.894 L207.848,243.557 L201.771,242.991 L201.771,244.342 C200.069,244.227 198.358,244.137 196.698,244.069 C195.599,243.688 194.496,243.337 193.406,243.029 L190.659,241.44 L190.206,236.65 C205.329,235.585 218.182,231.27 228.845,224.594 C235.071,224.344 238.912,222.84 238.912,222.84 C252.181,219.707 253.566,219.221 253.064,219.237 C300.47,212.661 301.768,152.793 284.443,88.831 C275.917,57.352 258.213,33.571 236.191,19.878 C232.252,16.641 227.066,14.265 221.59,12.534 C209.31,7.715 196.148,5.743 182.768,7.001 C138.141,2.804 95.862,34.303 81.093,88.831 C66.51,142.669 65.125,193.603 93.322,212.3 C88.551,215.104 84.295,219.581 81.444,224.275 C75.203,234.557 67.506,242.742 67.643,256.926 C67.668,259.464 67.141,259.768 68.296,263.237 C69.327,266.336 71.44,268.48 73.558,269.873 L75.667,272.051 C86.287,283.06 108.194,305.583 113.241,309.293 C125.953,318.642 134.893,304.319 138.587,299.777 C139.147,299.088 142.169,295.636 145.773,291.519 L153.19,297.313 L153.316,319.932 L152.383,319.932 L151.532,327.141 C151.532,327.141 143.696,346.59 138.036,377.32 C132.376,408.049 131.346,478.352 131.346,478.352 L138.053,478.352 C139.113,508.668 140.259,539.597 140.595,548.614 L143.185,636.182 C139.207,637.177 135.304,639.013 132.763,642.325 C131.038,644.575 130.165,646.354 129.775,647.753 C129.774,647.753 129.769,647.756 129.769,647.756 C126.775,653.188 129.058,655.445 129.058,655.445 L157.933,655.195 L157.933,635.353 C157.933,635.353 157.921,635.352 157.919,635.351 L165.083,542.318 L171.2,478.352 L194.734,478.352 L202.451,551.235 L208.928,635.351 C208.925,635.352 208.914,635.353 208.914,635.353 L208.914,655.195 L237.789,655.445 C237.789,655.445 240.072,653.188 237.078,647.756 C237.078,647.756 237.073,647.753 237.072,647.753 C236.682,646.354 235.809,644.575 234.084,642.325 C231.542,639.012 227.639,637.177 223.66,636.182 L228.33,478.352 L234.19,478.352 C234.19,478.352 233.161,408.049 227.501,377.32 C221.84,346.59 214.005,327.141 214.005,327.141 L213.153,319.932 L212.22,319.932 L212.331,300.115 L219.537,321.985 L219.537,335.886 C219.537,343.764 223.479,349.215 226.344,349.215 C229.21,349.215 230.52,345.914 230.52,345.914 L232.671,346.034 C232.671,346.034 232.907,347.943 233.385,349.137 C233.864,350.331 235.416,351.763 236.728,351.763 L240.428,351.763 C241.742,351.763 243.294,350.331 243.772,349.137 C244.25,347.943 244.487,346.034 244.487,346.034 L246.637,345.914 C246.637,345.914 247.947,349.215 250.813,349.215 C253.676,349.215 257.621,343.764 257.621,335.886 L257.621,328.592 L265.008,325.391 C269.735,325.395 282.916,323.482 284.492,302.233 C286.415,276.284 268.482,266.379 259.425,271.242 z" fill-opacity="0" stroke="#797979" stroke-width="8" stroke-linecap="round" stroke-linejoin="round"/>
      <path d="M284.443,88.831 C269.673,34.304 227.393,2.805 182.768,7.001 C138.141,2.805 95.862,34.304 81.093,88.831 C63.768,152.794 65.065,212.661 112.472,219.237 C111.97,219.222 113.355,219.707 126.624,222.841 C126.624,222.841 134.057,225.775 145.059,224.142 L164.721,227.243 L182.768,227.614 L200.815,227.243 L220.477,224.142 C231.478,225.775 238.912,222.841 238.912,222.841 C252.181,219.707 253.566,219.222 253.064,219.237 C300.47,212.661 301.768,152.794 284.443,88.831" fill="#CEA579"/>
      <path d="M284.443,88.831 C269.673,34.304 227.393,2.805 182.768,7.001 C138.141,2.805 95.862,34.304 81.093,88.831 C63.768,152.794 65.065,212.661 112.472,219.237 C111.97,219.222 113.355,219.707 126.624,222.841 C126.624,222.841 134.057,225.775 145.059,224.142 L164.721,227.243 L182.768,227.614 L200.815,227.243 L220.477,224.142 C231.478,225.775 238.912,222.841 238.912,222.841 C252.181,219.707 253.566,219.222 253.064,219.237 C300.47,212.661 301.768,152.794 284.443,88.831 z" fill-opacity="0" stroke="#797979" stroke-width="4" stroke-linecap="round" stroke-linejoin="round"/>
      <g>
        <path d="M95.012,186.872 C95.012,186.872 88.182,205.489 113.393,219.368" fill="#CEA579"/>
        <path d="M95.012,186.872 C95.012,186.872 88.182,205.489 113.393,219.368" fill-opacity="0" stroke="#797979" stroke-width="4" stroke-linecap="round" stroke-linejoin="round"/>
      </g>
      <g>
        <path d="M270.523,186.872 C270.523,186.872 277.352,205.489 252.143,219.368" fill="#CEA579"/>
        <path d="M270.523,186.872 C270.523,186.872 277.352,205.489 252.143,219.368" fill-opacity="0" stroke="#797979" stroke-width="4" stroke-linecap="round" stroke-linejoin="round"/>
      </g>
      <path d="M230.12,417.804 L223.442,643.517 L209.681,645.126 L194.391,446.586 z" fill="#FFEFD9"/>
      <path d="M230.12,417.804 L223.442,643.517 L209.681,645.126 L194.391,446.586 L230.12,417.804 z" fill-opacity="0" stroke="#797979" stroke-width="4" stroke-linecap="round" stroke-linejoin="round"/>
      <path d="M136.726,417.804 L143.402,643.517 L157.165,645.126 L172.455,446.586 z" fill="#FFEFD9"/>
      <path d="M136.726,417.804 L143.402,643.517 L157.165,645.126 L172.455,446.586 L136.726,417.804 z" fill-opacity="0" stroke="#797979" stroke-width="4" stroke-linecap="round" stroke-linejoin="round"/>
      <path d="M130.578,652.143 L157.933,652.143 L157.933,635.353 C157.933,635.353 139.933,632.981 132.764,642.325 C127.06,649.76 130.578,652.143 130.578,652.143" fill="#FFFFFF"/>
      <path d="M130.578,652.143 L157.933,652.143 L157.933,635.353 C157.933,635.353 139.933,632.981 132.764,642.325 C127.06,649.76 130.578,652.143 130.578,652.143 z" fill-opacity="0" stroke="#797979" stroke-width="4" stroke-linecap="round" stroke-linejoin="round"/>
      <path d="M129.769,647.756 C129.769,647.756 136.808,643.694 145.058,645.194 C153.308,646.694 157.933,652.143 157.933,652.143 L157.933,655.194 L129.058,655.444 C129.058,655.444 126.775,653.188 129.769,647.756" fill="#FFFFFF"/>
      <path d="M129.769,647.756 C129.769,647.756 136.808,643.694 145.058,645.194 C153.308,646.694 157.933,652.143 157.933,652.143 L157.933,655.194 L129.058,655.444 C129.058,655.444 126.775,653.188 129.769,647.756 z" fill-opacity="0" stroke="#797979" stroke-width="4" stroke-linecap="round" stroke-linejoin="round"/>
      <path d="M236.269,652.143 L208.914,652.143 L208.914,635.353 C208.914,635.353 226.914,632.981 234.083,642.325 C239.787,649.76 236.269,652.143 236.269,652.143" fill="#FFFFFF"/>
      <path d="M236.269,652.143 L208.914,652.143 L208.914,635.353 C208.914,635.353 226.914,632.981 234.083,642.325 C239.787,649.76 236.269,652.143 236.269,652.143 z" fill-opacity="0" stroke="#797979" stroke-width="4" stroke-linecap="round" stroke-linejoin="round"/>
      <path d="M237.077,647.756 C237.077,647.756 230.038,643.694 221.788,645.194 C213.538,646.694 208.913,652.143 208.913,652.143 L208.913,655.194 L237.788,655.444 C237.788,655.444 240.072,653.188 237.077,647.756" fill="#FFFFFF"/>
      <path d="M237.077,647.756 C237.077,647.756 230.038,643.694 221.788,645.194 C213.538,646.694 208.913,652.143 208.913,652.143 L208.913,655.194 L237.788,655.444 C237.788,655.444 240.072,653.188 237.077,647.756 z" fill-opacity="0" stroke="#797979" stroke-width="4" stroke-linecap="round" stroke-linejoin="round"/>
      <path d="M217.639,247.188 C213.763,245.086 203.491,244.296 195.102,244.009 L190.659,241.44 L189.297,227.06 L182.807,222.84 L176.317,227.06 L174.955,241.44 L170.511,244.01 C162.123,244.297 151.86,245.087 147.986,247.188 C147.643,247.374 146.565,249.674 146.565,249.674 C146.5,256.381 157.696,280.876 157.696,280.876 L207.93,280.876 C207.93,280.876 219.124,256.381 219.061,249.674 C219.061,249.674 217.983,247.374 217.639,247.188" fill="#FFEFD9"/>
      <path d="M217.639,247.188 C213.763,245.086 203.491,244.296 195.102,244.009 L190.659,241.44 L189.297,227.06 L182.807,222.84 L176.317,227.06 L174.955,241.44 L170.511,244.01 C162.123,244.297 151.86,245.087 147.986,247.188 C147.643,247.374 146.565,249.674 146.565,249.674 C146.5,256.381 157.696,280.876 157.696,280.876 L207.93,280.876 C207.93,280.876 219.124,256.381 219.061,249.674 C219.061,249.674 217.983,247.374 217.639,247.188 z" fill-opacity="0" stroke="#797979" stroke-width="4" stroke-linecap="round" stroke-linejoin="round"/>
      <path d="M209.243,249.872 C205.611,247.606 199.237,244.667 193.298,242.998 L190.604,241.44 L189.243,227.06 L182.753,222.841 L176.263,227.06 L174.901,241.44 L172.178,243.015 C166.255,244.687 159.912,247.614 156.292,249.872 C150.916,253.225 151.059,254.501 151.059,254.501 C150.994,261.208 156.161,278.71 156.161,278.71 L209.374,278.71 C209.374,278.71 214.541,261.208 214.476,254.501 C214.476,254.501 214.619,253.225 209.243,249.872" fill="#FFEFD9"/>
      <path d="M209.243,249.872 C205.611,247.606 199.237,244.667 193.298,242.998 L190.604,241.44 L189.243,227.06 L182.753,222.841 L176.263,227.06 L174.901,241.44 L172.178,243.015 C166.255,244.687 159.912,247.614 156.292,249.872 C150.916,253.225 151.059,254.501 151.059,254.501 C150.994,261.208 156.161,278.71 156.161,278.71 L209.374,278.71 C209.374,278.71 214.541,261.208 214.476,254.501 C214.476,254.501 214.619,253.225 209.243,249.872 z" fill-opacity="0" stroke="#797979" stroke-width="4" stroke-linecap="round" stroke-linejoin="round"/>
      <path d="M182.768,288.014 C192.934,288.025 203.114,263.928 202.813,256.511 C202.813,256.511 196.894,262.381 182.768,262.381 C168.642,262.381 162.811,256.511 162.811,256.511 C162.51,263.907 172.631,288.003 182.768,288.014" fill="#FFFFFF"/>
      <path d="M182.768,288.014 C192.934,288.025 203.114,263.928 202.813,256.511 C202.813,256.511 196.894,262.381 182.768,262.381 C168.642,262.381 162.811,256.511 162.811,256.511 C162.51,263.907 172.631,288.003 182.768,288.014 z" fill-opacity="0" stroke="#797979" stroke-width="4" stroke-linecap="round" stroke-linejoin="round"/>
      <path d="M156.71,305.891 L208.914,305.891 L210.772,273.089 L213.354,244.909 L207.494,244.932 L182.813,293.638 L158.129,244.932 L152.271,244.909 L154.854,273.089 z" fill="#E8EFF2"/>
      <path d="M156.71,305.891 L208.914,305.891 L210.772,273.089 L213.354,244.909 L207.494,244.932 L182.813,293.638 L158.129,244.932 L152.271,244.909 L154.854,273.089 L156.71,305.891 z" fill-opacity="0" stroke="#797979" stroke-width="4" stroke-linecap="round" stroke-linejoin="round"/>
      <g>
        <path d="M156.292,249.872 C152.619,250.893 124.272,284.329 121.399,288.314 L86.148,259.622 L69.852,266.002 C69.852,266.002 106.516,304.349 113.24,309.294 C125.952,318.642 134.893,304.319 138.586,299.777 C139.967,298.079 156.312,279.588 159.452,275.725" fill="#FFEFD9"/>
        <path d="M156.292,249.872 C152.619,250.893 124.272,284.329 121.399,288.314 L86.148,259.622 L69.852,266.002 C69.852,266.002 106.516,304.349 113.24,309.294 C125.952,318.642 134.893,304.319 138.586,299.777 C139.967,298.079 156.312,279.588 159.452,275.725" fill-opacity="0" stroke="#797979" stroke-width="4" stroke-linecap="round" stroke-linejoin="round"/>
      </g>
      <path d="M235.463,338.195 L228.194,320.022 L259.916,310.33 L273.788,321.586 z" fill="#FFEFD9"/>
      <path d="M235.463,338.195 L228.194,320.022 L259.916,310.33 L273.788,321.586 L235.463,338.195 z" fill-opacity="0" stroke="#797979" stroke-width="4" stroke-linecap="round" stroke-linejoin="round"/>
      <g>
        <path d="M204.14,275.255 L220.678,325.45 C220.678,325.45 222.802,333.096 231.148,333.096 C234.936,333.096 240.865,326.096 240.865,326.096 C235.423,305.728 217.636,254.133 212.369,251.208 L211.22,250.691" fill="#FFEFD9"/>
        <path d="M204.14,275.255 L220.678,325.45 C220.678,325.45 222.802,333.096 231.148,333.096 C234.936,333.096 240.865,326.096 240.865,326.096 C235.423,305.728 217.636,254.133 212.369,251.208 L211.22,250.691" fill-opacity="0" stroke="#797979" stroke-width="4" stroke-linecap="round" stroke-linejoin="round"/>
      </g>
      <g>
        <path d="M207.495,244.932 C207.495,244.932 218.954,244.463 221.831,249.391 C228.956,261.594 240.535,275.292 240.535,275.292 L210.967,298.391 L205.014,275.924" fill="#E8EFF2"/>
        <path d="M207.495,244.932 C207.495,244.932 218.954,244.463 221.831,249.391 C228.956,261.594 240.535,275.292 240.535,275.292 L210.967,298.391 L205.014,275.924" fill-opacity="0" stroke="#797979" stroke-width="4" stroke-linecap="round" stroke-linejoin="round"/>
      </g>
      <g>
        <path d="M158.041,244.932 C158.041,244.932 146.582,244.463 143.705,249.391 C136.58,261.594 125.001,275.292 125.001,275.292 L154.569,298.391 L160.522,275.924" fill="#E8EFF2"/>
        <path d="M158.041,244.932 C158.041,244.932 146.582,244.463 143.705,249.391 C136.58,261.594 125.001,275.292 125.001,275.292 L154.569,298.391 L160.522,275.924" fill-opacity="0" stroke="#797979" stroke-width="4" stroke-linecap="round" stroke-linejoin="round"/>
      </g>
      <path d="M224.974,373.63 L182.768,372.892 L140.562,373.63 C140.562,373.63 135.623,390.708 136.071,415.212 C136.516,439.716 140.693,551.235 140.693,551.235 L164.23,551.235 L174.9,439.651 L190.636,439.651 L202.451,551.235 L226.168,551.235 C226.168,551.235 229.02,439.716 229.465,415.212 C229.912,390.708 224.974,373.63 224.974,373.63" fill="#AEBAEB"/>
      <path d="M224.974,373.63 L182.768,372.892 L140.562,373.63 C140.562,373.63 135.623,390.708 136.071,415.212 C136.516,439.716 140.693,551.235 140.693,551.235 L164.23,551.235 L174.9,439.651 L190.636,439.651 L202.451,551.235 L226.168,551.235 C226.168,551.235 229.02,439.716 229.465,415.212 C229.912,390.708 224.974,373.63 224.974,373.63 z" fill-opacity="0" stroke="#797979" stroke-width="4" stroke-linecap="round" stroke-linejoin="round"/>
      <path d="M227.5,377.32 C221.84,346.591 214.004,327.141 214.004,327.141 L151.531,327.141 C151.531,327.141 143.695,346.591 138.035,377.32 C132.375,408.05 131.346,478.352 131.346,478.352 L234.189,478.352 C234.189,478.352 233.16,408.05 227.5,377.32" fill="#FFF6B5"/>
      <path d="M227.5,377.32 C221.84,346.591 214.004,327.141 214.004,327.141 L151.531,327.141 C151.531,327.141 143.695,346.591 138.035,377.32 C132.375,408.05 131.346,478.352 131.346,478.352 L234.189,478.352 C234.189,478.352 233.16,408.05 227.5,377.32 z" fill-opacity="0" stroke="#797979" stroke-width="4" stroke-linecap="round" stroke-linejoin="round"/>
      <path d="M212.44,280.641 L206.19,272.223 L159.346,272.223 L153.096,280.641 L153.326,321.749 L212.21,321.749 z" fill="#FFF6B5"/>
      <path d="M212.44,280.641 L206.19,272.223 L159.346,272.223 L153.096,280.641 L153.326,321.749 L212.21,321.749 L212.44,280.641 z" fill-opacity="0" stroke="#797979" stroke-width="4" stroke-linecap="round" stroke-linejoin="round"/>
      <path d="M163.765,278.896 L157.688,278.896 L157.688,243.557 L163.765,242.991 z" fill="#FFF6B5"/>
      <path d="M163.765,278.896 L157.688,278.896 L157.688,243.557 L163.765,242.991 L163.765,278.896 z" fill-opacity="0" stroke="#797979" stroke-width="4" stroke-linecap="round" stroke-linejoin="round"/>
      <path d="M201.771,278.896 L207.848,278.896 L207.848,243.557 L201.771,242.991 z" fill="#FFF6B5"/>
      <path d="M201.771,278.896 L207.848,278.896 L207.848,243.557 L201.771,242.991 L201.771,278.896 z" fill-opacity="0" stroke="#797979" stroke-width="4" stroke-linecap="round" stroke-linejoin="round"/>
      <path d="M214.004,327.141 L151.531,327.141 L152.383,319.932 L213.152,319.932 z" fill="#FFF6B5"/>
      <path d="M214.004,327.141 L151.531,327.141 L152.383,319.932 L213.152,319.932 L214.004,327.141 z" fill-opacity="0" stroke="#797979" stroke-width="4" stroke-linecap="round" stroke-linejoin="round"/>
      <path d="M180.035,318.432 C180.035,318.432 170.972,335.058 167.95,342.225 L173.848,351.268 C173.848,351.268 178.884,334.301 180.035,328.329 z" fill="#FFF6B5"/>
      <path d="M180.035,318.432 C180.035,318.432 170.972,335.058 167.95,342.225 L173.848,351.268 C173.848,351.268 178.884,334.301 180.035,328.329 L180.035,318.432 z" fill-opacity="0" stroke="#797979" stroke-width="4" stroke-linecap="round" stroke-linejoin="round"/>
      <path d="M185.5,318.432 C185.5,318.432 194.564,335.058 197.586,342.225 L191.688,351.268 C191.688,351.268 186.652,334.301 185.5,328.329 z" fill="#FFF6B5"/>
      <path d="M185.5,318.432 C185.5,318.432 194.564,335.058 197.586,342.225 L191.688,351.268 C191.688,351.268 186.652,334.301 185.5,328.329 L185.5,318.432 z" fill-opacity="0" stroke="#797979" stroke-width="4" stroke-linecap="round" stroke-linejoin="round"/>
      <g>
        <path d="M178.9,329.182 L186.635,329.182 L186.635,318.432 L178.9,318.432 z" fill="#FFF6B5"/>
        <path d="M178.9,329.182 L186.635,329.182 L186.635,318.432 L178.9,318.432 z" fill-opacity="0" stroke="#797979" stroke-width="4" stroke-linecap="round" stroke-linejoin="round"/>
      </g>
      <g>
        <path d="M111.658,140.359 C111.658,140.359 83.516,134.55 83.516,159.995 C83.516,174.961 93.204,181.757 113.122,182.043" fill="#FFEFD9"/>
        <path d="M111.658,140.359 C111.658,140.359 83.516,134.55 83.516,159.995 C83.516,174.961 93.204,181.757 113.122,182.043" fill-opacity="0" stroke="#797979" stroke-width="4" stroke-linecap="round" stroke-linejoin="round"/>
      </g>
      <g>
        <path d="M94.239,161.372 C94.239,161.372 97.927,159.668 101.443,159.689" fill="#FFEFD9"/>
        <path d="M94.239,161.372 C94.239,161.372 97.927,159.668 101.443,159.689" fill-opacity="0" stroke="#797979" stroke-width="4" stroke-linecap="round" stroke-linejoin="round"/>
      </g>
      <g>
        <path d="M253.877,140.359 C253.877,140.359 282.02,134.55 282.02,159.995 C282.02,174.961 272.33,181.757 252.412,182.043" fill="#FFEFD9"/>
        <path d="M253.877,140.359 C253.877,140.359 282.02,134.55 282.02,159.995 C282.02,174.961 272.33,181.757 252.412,182.043" fill-opacity="0" stroke="#797979" stroke-width="4" stroke-linecap="round" stroke-linejoin="round"/>
      </g>
      <g>
        <path d="M271.295,161.372 C271.295,161.372 267.606,159.668 264.09,159.689" fill="#FFEFD9"/>
        <path d="M271.295,161.372 C271.295,161.372 267.606,159.668 264.09,159.689" fill-opacity="0" stroke="#797979" stroke-width="4" stroke-linecap="round" stroke-linejoin="round"/>
      </g>
      <path d="M182.767,236.913 C62.007,236.913 73.691,39.966 182.767,39.966 C291.844,39.966 303.528,236.913 182.767,236.913" fill="#FFEFD9"/>
      <path d="M182.767,236.913 C62.007,236.913 73.691,39.966 182.767,39.966 C291.844,39.966 303.528,236.913 182.767,236.913 z" fill-opacity="0" stroke="#797979" stroke-width="4" stroke-linecap="round" stroke-linejoin="round"/>
      <path d="M239.714,23.446 C248.41,34.632 257.178,87.439 186.126,91.288 C186.126,91.288 173.321,92.713 154.453,88.056 C154.453,88.056 133.125,94.366 115.282,90.014 C115.282,90.014 102.637,95.43 94.024,91.131 C94.024,91.131 119.151,3.6 197.37,8.3 C208.954,8.996 231.018,12.26 239.714,23.446" fill="#CEA579"/>
      <path d="M239.714,23.446 C248.41,34.632 257.178,87.439 186.126,91.288 C186.126,91.288 173.321,92.713 154.453,88.056 C154.453,88.056 133.125,94.366 115.282,90.014 C115.282,90.014 102.637,95.43 94.024,91.131 C94.024,91.131 119.151,3.6 197.37,8.3 C208.954,8.996 231.018,12.26 239.714,23.446 z" fill-opacity="0" stroke="#797979" stroke-width="4" stroke-linecap="round" stroke-linejoin="round"/>
      <g>
        <path d="M154.453,88.056 C154.453,88.056 216.581,74.381 222.579,36.149" fill="#CEA579"/>
        <path d="M154.453,88.056 C154.453,88.056 216.581,74.381 222.579,36.149" fill-opacity="0" stroke="#797979" stroke-width="4" stroke-linecap="round" stroke-linejoin="round"/>
      </g>
      <g>
        <path d="M115.282,90.014 C168.756,82.399 187.967,49.486 187.967,49.486" fill="#CEA579"/>
        <path d="M115.282,90.014 C168.756,82.399 187.967,49.486 187.967,49.486" fill-opacity="0" stroke="#797979" stroke-width="4" stroke-linecap="round" stroke-linejoin="round"/>
      </g>
      <g>
        <path d="M186.126,91.288 C186.126,91.288 210.097,88.309 223.23,68.555" fill="#CEA579"/>
        <path d="M186.126,91.288 C186.126,91.288 210.097,88.309 223.23,68.555" fill-opacity="0" stroke="#797979" stroke-width="4" stroke-linecap="round" stroke-linejoin="round"/>
      </g>
      <path d="M180.884,177.405 C180.884,177.405 179.551,183.405 184.803,183.072" fill-opacity="0" stroke="#797979" stroke-width="4" stroke-linecap="round" stroke-linejoin="round"/>
      <path d="M186.84,191.837 C185.852,191.255 184.661,190.9 183.246,190.833 C183.198,190.83 183.151,190.82 183.104,190.818 C182.986,190.815 182.881,190.824 182.767,190.824 C182.653,190.824 182.547,190.815 182.43,190.818 C182.383,190.82 182.335,190.83 182.287,190.833 C180.872,190.9 179.682,191.255 178.694,191.837 C169.461,196.432 161.918,215.26 166.93,218.891 C174.66,224.492 174.818,215.493 182.767,215.493 C190.716,215.493 190.873,224.492 198.604,218.891 C203.615,215.26 196.072,196.432 186.84,191.837" fill="#F4ACA6"/>
      <path d="M186.84,191.837 C185.852,191.255 184.661,190.9 183.246,190.833 C183.198,190.83 183.151,190.82 183.104,190.818 C182.986,190.815 182.881,190.824 182.767,190.824 C182.653,190.824 182.547,190.815 182.43,190.818 C182.383,190.82 182.335,190.83 182.287,190.833 C180.872,190.9 179.682,191.255 178.694,191.837 C169.461,196.432 161.918,215.26 166.93,218.891 C174.66,224.492 174.818,215.493 182.767,215.493 C190.716,215.493 190.873,224.492 198.604,218.891 C203.615,215.26 196.072,196.432 186.84,191.837 z" fill-opacity="0" stroke="#797979" stroke-width="4" stroke-linecap="round" stroke-linejoin="round"/>
      <path d="M224.68,144.154 C224.68,151.781 222.143,157.964 219.012,157.964 C215.881,157.964 213.344,151.781 213.344,144.154 C213.344,136.527 215.881,130.345 219.012,130.345 C222.143,130.345 224.68,136.527 224.68,144.154" fill="#797979"/>
      <path d="M138.447,151.515 C138.447,151.515 148.963,151.066 153.83,144.103 C147.947,144.953 137.447,141.097 137.447,141.097" fill-opacity="0" stroke="#797979" stroke-width="4" stroke-linecap="round" stroke-linejoin="round"/>
      <g>
        <path d="M123.152,172.599 C123.152,172.599 120.305,188.585 124.873,195.672 C128.857,201.855 135.218,199.829 134.535,191.965 C134.193,188.031 132.575,185.721 132.575,185.721" fill="#B4E2EB"/>
        <path d="M123.152,172.599 C123.152,172.599 120.305,188.585 124.873,195.672 C128.857,201.855 135.218,199.829 134.535,191.965 C134.193,188.031 132.575,185.721 132.575,185.721" fill-opacity="0" stroke="#797979" stroke-width="4" stroke-linecap="round" stroke-linejoin="round"/>
      </g>
      <g>
        <path d="M251.183,156.13 C251.183,156.13 242.303,169.724 243.73,178.033 C244.975,185.282 251.621,185.91 254.072,178.406 C255.298,174.652 254.714,171.894 254.714,171.894" fill="#B4E2EB"/>
        <path d="M251.183,156.13 C251.183,156.13 242.303,169.724 243.73,178.033 C244.975,185.282 251.621,185.91 254.072,178.406 C255.298,174.652 254.714,171.894 254.714,171.894" fill-opacity="0" stroke="#797979" stroke-width="4" stroke-linecap="round" stroke-linejoin="round"/>
      </g>
      <path d="M136.157,107.25 C136.157,107.25 149.324,105.314 155.157,99.25" fill-opacity="0" stroke="#797979" stroke-width="4" stroke-linecap="round" stroke-linejoin="round"/>
      <path d="M229.377,107.25 C229.377,107.25 216.21,105.314 210.377,99.25" fill-opacity="0" stroke="#797979" stroke-width="4" stroke-linecap="round" stroke-linejoin="round"/>
      <g>
        <path d="M75.698,272.083 L73.558,269.873 C71.44,268.48 69.327,266.337 68.296,263.237 C67.141,259.768 67.668,259.465 67.643,256.927 C67.507,242.742 75.203,234.558 81.444,224.275 C87.69,213.99 100.677,204.723 111.054,211.903 C118.231,216.868 113.669,227.182 108.341,234.442 C103.012,241.71 100.142,246.841 100.142,246.841 C100.142,246.841 97.33,257.427 92.343,264.664 L97.042,268.487" fill="#FFEFD9"/>
        <path d="M75.698,272.083 L73.558,269.873 C71.44,268.48 69.327,266.337 68.296,263.237 C67.141,259.768 67.668,259.465 67.643,256.927 C67.507,242.742 75.203,234.558 81.444,224.275 C87.69,213.99 100.677,204.723 111.054,211.903 C118.231,216.868 113.669,227.182 108.341,234.442 C103.012,241.71 100.142,246.841 100.142,246.841 C100.142,246.841 97.33,257.427 92.343,264.664 L97.042,268.487" fill-opacity="0" stroke="#797979" stroke-width="4" stroke-linecap="round" stroke-linejoin="round"/>
      </g>
      <g>
        <path d="M114.267,222.806 C114.267,222.806 109.26,222.292 103.982,225.487 C98.706,228.681 94.075,234.379 94.075,234.379" fill="#FFEFD9"/>
        <path d="M114.267,222.806 C114.267,222.806 109.26,222.292 103.982,225.487 C98.706,228.681 94.075,234.379 94.075,234.379" fill-opacity="0" stroke="#797979" stroke-width="4" stroke-linecap="round" stroke-linejoin="round"/>
      </g>
      <g>
        <path d="M112.658,213.318 C112.658,213.318 105.679,211.686 99.29,216.494 C93.831,220.603 92.164,221.881 92.164,221.881" fill="#FFEFD9"/>
        <path d="M112.658,213.318 C112.658,213.318 105.679,211.686 99.29,216.494 C93.831,220.603 92.164,221.881 92.164,221.881" fill-opacity="0" stroke="#797979" stroke-width="4" stroke-linecap="round" stroke-linejoin="round"/>
      </g>
      <path d="M252.247,252.675 C249.86,249.093 246.04,246.228 246.04,245.391 L246.04,240.003 L231.116,240.003 L231.116,245.391 C231.116,246.228 227.296,249.093 224.907,252.675 C222.52,256.256 219.536,260.434 219.536,265.927 L219.536,335.886 C219.536,343.764 223.478,349.215 226.344,349.215 C229.209,349.215 230.519,345.913 230.519,345.913 L232.67,346.033 C232.67,346.033 232.906,347.943 233.385,349.137 C233.863,350.33 235.415,351.763 236.727,351.763 L240.428,351.763 C241.741,351.763 243.293,350.33 243.771,349.137 C244.249,347.943 244.486,346.033 244.486,346.033 L246.637,345.913 C246.637,345.913 247.946,349.215 250.812,349.215 C253.676,349.215 257.62,343.764 257.62,335.886 L257.62,265.927 C257.62,260.434 254.635,256.256 252.247,252.675" fill="#EBFCFF"/>
      <path d="M252.247,252.675 C249.86,249.093 246.04,246.228 246.04,245.391 L246.04,240.003 L231.116,240.003 L231.116,245.391 C231.116,246.228 227.296,249.093 224.907,252.675 C222.52,256.256 219.536,260.434 219.536,265.927 L219.536,335.886 C219.536,343.764 223.478,349.215 226.344,349.215 C229.209,349.215 230.519,345.913 230.519,345.913 L232.67,346.033 C232.67,346.033 232.906,347.943 233.385,349.137 C233.863,350.33 235.415,351.763 236.727,351.763 L240.428,351.763 C241.741,351.763 243.293,350.33 243.771,349.137 C244.249,347.943 244.486,346.033 244.486,346.033 L246.637,345.913 C246.637,345.913 247.946,349.215 250.812,349.215 C253.676,349.215 257.62,343.764 257.62,335.886 L257.62,265.927 C257.62,260.434 254.635,256.256 252.247,252.675 z" fill-opacity="0" stroke="#797979" stroke-width="4" stroke-linecap="round" stroke-linejoin="round"/>
      <path d="M238.635,236.751 C237.607,236.751 228.599,236.815 228.599,239.098 C228.599,241.379 237.607,241.444 238.635,241.444 C239.661,241.444 248.67,241.379 248.67,239.098 C248.67,236.815 239.661,236.751 238.635,236.751" fill="#FFFFFF"/>
      <path d="M238.635,236.751 C237.607,236.751 228.599,236.815 228.599,239.098 C228.599,241.379 237.607,241.444 238.635,241.444 C239.661,241.444 248.67,241.379 248.67,239.098 C248.67,236.815 239.661,236.751 238.635,236.751 z" fill-opacity="0" stroke="#797979" stroke-width="4" stroke-linecap="round" stroke-linejoin="round"/>
      <path d="M247.156,231.505 C247.156,231.139 246.946,230.832 246.596,230.574 C246.159,228.683 239.424,228.627 238.635,228.627 C237.843,228.627 231.11,228.683 230.673,230.574 C230.323,230.832 230.111,231.139 230.111,231.505 L230.111,232.273 C230.111,232.55 230.231,232.792 230.44,233.007 C230.231,233.221 230.111,233.464 230.111,233.741 L230.111,234.51 C230.111,234.891 230.348,235.205 230.725,235.47 C230.714,235.497 230.715,235.529 230.705,235.56 C230.342,235.821 230.111,236.13 230.111,236.503 L230.111,238.871 C230.111,241.096 237.762,241.159 238.635,241.159 C239.508,241.159 247.156,241.096 247.156,238.871 L247.156,236.503 C247.156,236.13 246.926,235.821 246.563,235.56 C246.554,235.529 246.554,235.497 246.544,235.47 C246.92,235.205 247.156,234.892 247.156,234.51 L247.156,233.741 C247.156,233.464 247.038,233.221 246.827,233.007 C247.038,232.792 247.156,232.55 247.156,232.273 z" fill="#EBFCFF"/>
      <path d="M247.156,231.505 C247.156,231.139 246.946,230.832 246.596,230.574 C246.159,228.683 239.424,228.627 238.635,228.627 C237.843,228.627 231.11,228.683 230.673,230.574 C230.323,230.832 230.111,231.139 230.111,231.505 L230.111,232.273 C230.111,232.55 230.231,232.792 230.44,233.007 C230.231,233.221 230.111,233.464 230.111,233.741 L230.111,234.51 C230.111,234.891 230.348,235.205 230.725,235.47 C230.714,235.497 230.715,235.529 230.705,235.56 C230.342,235.821 230.111,236.13 230.111,236.503 L230.111,238.871 C230.111,241.096 237.762,241.159 238.635,241.159 C239.508,241.159 247.156,241.096 247.156,238.871 L247.156,236.503 C247.156,236.13 246.926,235.821 246.563,235.56 C246.554,235.529 246.554,235.497 246.544,235.47 C246.92,235.205 247.156,234.892 247.156,234.51 L247.156,233.741 C247.156,233.464 247.038,233.221 246.827,233.007 C247.038,232.792 247.156,232.55 247.156,232.273 L247.156,231.505 z" fill-opacity="0" stroke="#797979" stroke-width="4" stroke-linecap="round" stroke-linejoin="round"/>
      <path d="M238.605,268.127 C236.657,268.127 219.564,268.004 219.564,263.674 L219.564,297.367 C219.564,301.696 236.657,301.82 238.605,301.82 C240.556,301.82 257.648,301.696 257.648,297.367 L257.648,263.674 C257.648,268.004 240.556,268.127 238.605,268.127" fill="#ADDAFF"/>
      <path d="M238.605,268.127 C236.657,268.127 219.564,268.004 219.564,263.674 L219.564,297.367 C219.564,301.696 236.657,301.82 238.605,301.82 C240.556,301.82 257.648,301.696 257.648,297.367 L257.648,263.674 C257.648,268.004 240.556,268.127 238.605,268.127 z" fill-opacity="0" stroke="#797979" stroke-width="4" stroke-linecap="round" stroke-linejoin="round"/>
      <path d="M263.324,325.297 C263.324,325.297 282.566,328.184 284.491,302.234 C286.414,276.284 268.481,266.38 259.425,271.242 C252.834,274.78 249.875,298.945 258.803,311.495 C258.803,311.495 254.062,322.237 263.324,325.297" fill="#FFEFD9"/>
      <path d="M263.324,325.297 C263.324,325.297 282.566,328.184 284.491,302.234 C286.414,276.284 268.481,266.38 259.425,271.242 C252.834,274.78 249.875,298.945 258.803,311.495 C258.803,311.495 254.062,322.237 263.324,325.297 z" fill-opacity="0" stroke="#797979" stroke-width="4" stroke-linecap="round" stroke-linejoin="round"/>
      <g>
        <path d="M267.61,295.677 C267.61,295.677 263.954,293.22 259.895,294.47 C253.221,296.523 259.895,294.47 259.895,294.47" fill="#8D96A5"/>
        <path d="M267.61,295.677 C267.61,295.677 263.954,293.22 259.895,294.47 C253.221,296.523 259.895,294.47 259.895,294.47" fill-opacity="0" stroke="#797979" stroke-width="4" stroke-linecap="round" stroke-linejoin="round"/>
      </g>
      <g>
        <path d="M270.965,285.495 C270.965,285.495 268.016,280.938 260.564,281.588 C248.964,282.599 260.564,281.588 260.564,281.588" fill="#8D96A5"/>
        <path d="M270.965,285.495 C270.965,285.495 268.016,280.938 260.564,281.588 C248.964,282.599 260.564,281.588 260.564,281.588" fill-opacity="0" stroke="#797979" stroke-width="4" stroke-linecap="round" stroke-linejoin="round"/>
      </g>
      <path d="M64.908,229.756 C64.908,229.756 54.133,235.894 52.888,248.482" fill-opacity="0" stroke="#797979" stroke-width="4" stroke-linecap="round" stroke-linejoin="round"/>
      <path d="M64.87,215.135 C57.554,218.437 43.786,231.27 42.464,248.934" fill-opacity="0" stroke="#797979" stroke-width="4" stroke-linecap="round" stroke-linejoin="round"/>
      <path d="M23.166,83.74 C13.36,95.558 14.73,116.943 27.022,126.978 C39.315,137.013 50.218,140.344 47.122,154.967 C44.025,169.588 50.032,173.935 56.04,178.283" fill-opacity="0" stroke="#F9AFA2" stroke-width="8" stroke-linecap="round" stroke-linejoin="round"/>
      <path d="M5.328,140.562 C5.176,149.68 7.538,161.075 19.837,166.213 C32.136,171.353 31.282,182.016 29.596,188.657 C27.908,195.298 32.374,202.062 39.222,205.535" fill-opacity="0" stroke="#F9AFA2" stroke-width="8" stroke-linecap="round" stroke-linejoin="round"/>
      <path d="M339.533,83.74 C349.339,95.558 347.969,116.943 335.677,126.978 C323.384,137.013 312.48,140.344 315.577,154.967 C318.673,169.588 312.667,173.935 306.659,178.283" fill-opacity="0" stroke="#F9AFA2" stroke-width="8" stroke-linecap="round" stroke-linejoin="round"/>
      <path d="M357.37,140.562 C357.522,149.68 355.16,161.075 342.861,166.213 C330.562,171.353 331.416,182.016 333.102,188.657 C334.79,195.298 330.324,202.062 323.476,205.535" fill-opacity="0" stroke="#F9AFA2" stroke-width="8" stroke-linecap="round" stroke-linejoin="round"/>
    </g>
  </g>
</svg>
